<?xml version="1.0" encoding="utf-8"?>
<!-- Generator: Adobe Illustrator 19.0.0, SVG Export Plug-In . SVG Version: 6.00 Build 0)  -->
<svg version="1.1" id="Layer_1" xmlns="http://www.w3.org/2000/svg" xmlns:xlink="http://www.w3.org/1999/xlink" x="0px" y="0px"
	 viewBox="414 238 1440 318" style="enable-background:new 414 238 1440 318;" xml:space="preserve">
<style type="text/css">
	.st0{fill:#FFD00D;}
	.st1{fill:#FFD52A;}
	.st2{fill:#FFDE55;}
	.st3{fill:#FFDC4C;}
	.st4{fill:#FFD62F;}
	.st5{fill:#FFDA42;}
	.st6{fill:#FFE062;}
	.st7{fill:#FFDC4E;}
	.st8{fill:#FFDD53;}
	.st9{fill:#FF9800;}
	.st10{fill:#FFD423;}
	.st11{fill:#FFDF5D;}
	.st12{fill:#FFE26B;}
	.st13{fill:#FFE681;}
	.st14{fill:#FFDB44;}
	.st15{fill:#FEC729;}
	.st16{fill:#F0A261;}
	.st17{fill:#EE954B;}
	.st18{fill:#E8A60C;}
</style>
<title>Group 16</title>
<desc>Created with Sketch.</desc>
<g id="Page-1">
	<g id="Home-page" transform="translate(0.000000, -292.000000)">
		<g id="Group-25" transform="translate(0.000000, -90.000000)">
			<g id="Group-16" transform="translate(-15.000000, 382.000000)">
				<polyline id="Fill-466" class="st0" points="1722.1,464.6 1722.1,487.2 1718.8,490.7 1718.8,501.9 1715.5,501.9 1715.5,472.1 
					1642.3,556 1706.8,556 1738.3,446 1722.1,464.6 				"/>
				<polyline id="Fill-467" class="st1" points="1706.3,556 1775.3,556 1738.3,446 1706.3,556 				"/>
				<polyline id="Fill-468" class="st2" points="1738.3,446 1775.1,556 1852.5,556 1853.3,550.7 1738.3,446 				"/>
				<polyline id="Fill-469" class="st3" points="1852.3,556 1900.3,556 1900.3,540.7 1895.5,538 1853.2,550.6 1852.3,556 				"/>
				<polyline id="Fill-470" class="st4" points="1889.2,529.4 1889.2,511.4 1886.9,511.4 1886.9,446.3 1884.3,446.3 1884.3,441.7 
					1880.7,440 1854.3,550 1896.3,537.4 1893,535.6 1893,531.5 1889.2,529.4 				"/>
				<polyline id="Fill-471" class="st5" points="1852.9,550 1879.3,440.2 1879.3,440.2 1879.3,437 1877.4,437 1877.4,439.1 
					1873.7,439.1 1873.7,408 1738.3,444.9 1852.9,550 				"/>
				<polyline id="Fill-472" class="st6" points="1723.5,415 1723.5,430.3 1722.3,431.4 1722.3,465 1738.3,446.1 1723.5,415 				"/>
				<polyline id="Fill-473" class="st6" points="1716.3,399.2 1703.3,372.9 1685.8,372.9 1685.8,337.4 1678.2,322 1647.3,322 
					1637.3,557 1642.1,557 1716.3,472.4 1716.3,399.2 				"/>
				<polyline id="Fill-474" class="st7" points="1640.8,322 1640.8,323.6 1641.5,323.6 1641.5,330.8 1642.8,331.8 1642.8,337.3 
					1643.7,337.3 1643.7,381.7 1641.7,384.1 1641.7,389 1638.6,389 1638.6,363.7 1629.9,363.7 1610,458.6 1610,462.1 1609.3,462.1 
					1589.3,557 1638.3,557 1648.3,322 1640.8,322 				"/>
				<polyline id="Fill-475" class="st2" points="1608.8,461.7 1608.8,451 1532.3,556 1589.6,556 1609.3,461.7 1608.8,461.7 				"/>
				<polyline id="Fill-476" class="st2" points="1609.3,449.4 1609.3,458 1612.3,446 1609.3,449.4 				"/>
				<polyline id="Fill-477" class="st3" points="1629.3,363.4 1623.3,363.4 1623.3,362.3 1614.8,362.3 1613.4,361 1610.9,361 
					1610.9,371 1609.7,371 1609.7,373.4 1608.3,373.4 1608.3,375.1 1609.7,375.1 1609.7,445.4 1612.3,446 1629.3,363.4 				"/>
				<polyline id="Fill-478" class="st3" points="1488.3,414 1483.3,414 1488.3,415 1488.3,414 				"/>
				<polyline id="Fill-479" class="st3" points="1533.3,420 1531.5,420 1531.5,421.2 1514.3,421.2 1533.3,426 1533.3,420 				"/>
				<polyline id="Fill-480" class="st3" points="1410.3,395 1410.3,391.1 1408.5,390 1408.5,381.2 1405,381.2 1405,381 
					1386.3,389.4 1410.3,395 				"/>
				<polyline id="Fill-481" class="st3" points="1598.3,440 1591.3,440 1598.3,442 1598.3,440 				"/>
				<polyline id="Fill-482" class="st3" points="1454.1,400 1452.3,400 1452.3,405.4 1455.3,406 1454.1,400 				"/>
				<polyline id="Fill-483" class="st8" points="1609.3,445 1609.3,449 1612.3,445.6 1609.3,445 				"/>
				<polyline id="Fill-484" class="st8" points="1410.3,407 1410.3,395.6 1386.3,390 1410.3,407 				"/>
				<path id="Fill-485" class="st8" d="M1558.4,520l49.9-68.9v-5.3h-9.3v-3.4l-7-1.7h-2.5v1.8h-4v-2.4h-6.6v4.9h-19.2v10.4l-1.6,1.5
					v1.7h-4.2c0,0,0-1.5,0-6.6c0-5.2-4.8-10.1-4.8-10.1h-3.7v-1.1h-3.1v2.5h-10.2v-7.6h-1.2v-7h1.2v-2.8l-18.6-4.6h-23.1v7h0.7v4.6
					h-0.8l-1.9-5.7v-10.2h-0.6v-1.9h0.6v-0.1l-5-1.2h-0.5v1.9c-6.6,0.9-8.8,2.7-8.8,2.7c-7.2-3.8-13.1-4-13.1-4l-1-1.2v-1.7h-5.6
					v-3.4l-0.2-1.5l-2.5-0.6v7h-2.6l-1.3,2.9v13.8c-2.8,0.5-4.8,1.3-6.3,2.2L1558.4,520"/>
				<polyline id="Fill-486" class="st5" points="1427.3,460 1426.3,459 1427.3,461 1427.3,460 				"/>
				<polyline id="Fill-487" class="st5" points="1410.3,430 1410.3,407.6 1386.3,390 1410.3,430 				"/>
				<path id="Fill-488" class="st5" d="M1441.7,432c-4.5,2.6-4.2,6-4.2,6h-3.3v4.4l-0.9,1.9h-0.9v5.4h0.7v21.3l50,85.9h48.4
					l26.8-37.1L1441.7,432"/>
				<polyline id="Fill-489" class="st0" points="1686.3,336.2 1687.3,336.2 1687.3,331 1688.4,330.1 1688.4,323.4 1689.3,323.4 
					1689.3,322 1678.3,322 1686.3,337 1686.3,336.2 				"/>
				<polyline id="Fill-490" class="st0" points="1785.3,433.2 1727.2,360 1726.4,360 1726.4,363 1727.1,363 1727.1,369.5 
					1726.1,369.5 1726.1,371.8 1727.1,371.8 1727.1,380.6 1722.3,380.6 1722.3,382 1723.9,382 1723.9,415 1739,446 1785.3,433.2 
									"/>
				<polyline id="Fill-491" class="st0" points="1716.3,368 1712.2,368 1712.2,369.7 1707,369.7 1703.4,371.7 1703.3,371.7 
					1716.3,398 1716.3,368 				"/>
				<path id="Fill-492" class="st0" d="M1873.3,407.7v-12.2l-59.5-35l-0.6,0.1l1.4,2h2.1v57.2c-4.4-48.9-11.8-59.3-11.8-59.3
					l5.6-1.9l-3.6-2.1l-14.1,2.4v-4.3h2.9v-2.8h-2.3l-30.3,6.8v-2.1h-8.8v-1.4l-2.9-4.2h-10.4V345h-1.1v4.1h-1.5l-1.4,2.5h-4.4v2.2
					l-1.6,1.5v4.3h-4.8l58.1,72.4L1873.3,407.7"/>
				<path id="Fill-493" class="st9" d="M1875.3,382.1l-1.7-0.9V378h-7.2c-3.2-11.3-7.7-21.8-7.7-21.8l5.8-1.3V352l-49.2,9.2l60,34.8
					V382.1"/>
				<polyline id="Fill-494" class="st9" points="1812.3,358.7 1812.3,356 1807.3,356.8 1811.2,359 1812.3,358.7 				"/>
				<path id="Fill-495" class="st2" d="M1404.3,380.3v-1.6h-1.6v0.9h-1.8V375l-2.2-1l-1,1.2v6.7c0,0-2.4-0.2-5.7,0.1l-5.7,6.9
					L1404.3,380.3"/>
				<polyline id="Fill-496" class="st8" points="1474.8,556 1484.3,556 1470.3,533 1474.8,556 				"/>
				<polyline id="Fill-497" class="st10" points="1470,533 1452.3,556 1474.3,556 1470,533 				"/>
				<polyline id="Fill-498" class="st2" points="1354.2,557 1378.3,557 1337.3,524 1354.2,557 				"/>
				<polyline id="Fill-499" class="st1" points="1470.3,533.2 1433.7,470.8 1433.7,509 1428.2,509 1428.2,461.4 1427.1,459.5 
					1419.4,453.1 1419.4,452 1418.3,452 1418.3,456.3 1419,456.3 1419,457.8 1418.4,457.8 1418.4,460.6 1414.7,460.6 1414.7,456 
					1409.7,456 1409.7,429.8 1386.3,390 1417.5,556 1452.8,556 1470.3,533.2 				"/>
				<polyline id="Fill-500" class="st5" points="1369.2,435.9 1369.2,440.6 1367.8,441.6 1367.8,449.1 1364.4,449.1 1358.2,466.2 
					1358.2,490.6 1357.3,491.3 1357.3,512.1 1350.5,512.1 1350.5,487.1 1337.3,523.4 1378.2,556 1417.3,556 1385.9,390 
					1369.2,435.9 				"/>
				<polyline id="Fill-501" class="st8" points="1315.3,557 1354.3,557 1337.5,524 1315.3,557 				"/>
				<polyline id="Fill-502" class="st2" points="1247.3,557 1315,557 1337.3,524 1247.3,557 				"/>
				<polyline id="Fill-503" class="st0" points="1360.5,449 1360.5,447 1359.2,447 1359.2,449.5 1358.3,449.5 1358.3,466 
					1364.3,449 1360.5,449 				"/>
				<polyline id="Fill-504" class="st0" points="1369.3,406 1369.3,436 1386.3,390 1369.3,406 				"/>
				<path id="Fill-505" class="st0" d="M1350.3,487.5v-24h-1.9c0,0-1.4-12.2-5.7-32.5l-130.4,126h35.7l89.1-32.9L1350.3,487.5"/>
				<path id="Fill-506" class="st2" d="M1380.6,386c-0.7,0.3-1.4,0.7-2.1,1.1c-8.6,5.5-9.1,12.9-9.1,12.9h-1v2.7h1v2.3l17-15.5
					L1380.6,386"/>
				<path id="Fill-507" class="st2" d="M1342.3,431.3c-1.4-6.7-3.1-14.4-5.2-22.8c-8.3-33.9-14.9-41.1-14.9-41.1V363h-2.4v6.9h-1.1
					v11.9h-3.2l-3.9,14.4v-4.1h-3.9l-1.1-1.7v-10.8h2.1l2.9-1.3v-2.2h-3.2v0.8h-3.9v1h-3.2v-1.6h2.1l0.8-0.8v-1.7l-4-1.2v-0.7h-6.1
					v0.6h-5.9l39,73.4L1342.3,431.3"/>
				<polyline id="Fill-508" class="st11" points="1129.3,533.3 1160.8,556 1212.1,556 1327.3,446 1129.3,533.3 				"/>
				<polyline id="Fill-509" class="st2" points="1129.3,533 1327.3,445.1 1237.8,427 1129.3,533 				"/>
				<polyline id="Fill-510" class="st11" points="1327.3,445 1287.6,372.1 1278.5,372.1 1278.5,376.4 1280.2,377.4 1280.2,379.6 
					1282.2,380 1282.2,388.7 1276.3,388.7 1275.6,387.4 1275.6,380 1277.4,380 1277.4,377.1 1267.4,369.8 1264.9,369.8 
					1264.9,371.7 1256,371.7 1242.8,369 1237.3,426.9 1327.3,445 				"/>
				<polyline id="Fill-511" class="st5" points="1243.3,369.1 1229.3,366.2 1229.3,363 1224.6,363 1224.6,367.5 1223.3,367.5 
					1222.5,370.9 1220.8,370.9 1220.8,374.3 1222.9,374.3 1222.9,393.2 1217.4,391.9 1217.4,388.3 1215.8,388.3 1215.8,387.2 
					1211.6,387.2 1211.6,388.1 1210.2,388.1 1210.2,390.9 1202.3,389.3 1237.9,427 1243.3,369.1 				"/>
				<polyline id="Fill-512" class="st5" points="1176.3,361 1176.3,347 1171.9,347 1171.9,343 1165.2,343 1161.3,344.9 1176.3,361 
									"/>
				<polyline id="Fill-513" class="st2" points="1129.3,533 1237.3,427 1202.1,389.3 1190.2,386.8 1185.9,386.8 1185.9,406.2 
					1175.7,406.2 1175.7,361.1 1160.7,345 1129.3,533 				"/>
				<polyline id="Fill-514" class="st12" points="1093.3,556 1159.3,556 1128.1,533 1093.3,556 				"/>
				<path id="Fill-515" class="st3" d="M1392.3,383c-1.6,0.2-3.5,0.4-5.5,0.9l-0.5,6.1L1392.3,383"/>
				<polyline id="Fill-516" class="st3" points="1398.2,373.9 1398.2,369.6 1397.3,369 1397.3,375 1398.3,373.9 1398.2,373.9 				
					"/>
				<path id="Fill-517" class="st11" d="M1385.3,384c-0.7,0.2-1.3,0.4-2,0.6l1.5,5.4L1385.3,384"/>
				<path id="Fill-518" class="st5" d="M1384.5,385c-1.4,0.4-2.8,0.9-4.2,1.6l6,3.4L1384.5,385"/>
				<polyline id="Fill-519" class="st3" points="1165.3,343 1160.3,343 1160.3,344.1 1161,345 1165.3,343 				"/>
				<path id="Fill-520" class="st2" d="M1046.3,339.2h-4.6c0,0,0.2-3.5,0-5c-0.2-1.5-3.2-3.1-22.5-3.2c-1,0-1.9,0-2.9,0l-33.1,62.1
					c0.5,7.2,0.8,13.9,1,19.9l62-23.8V339.2"/>
				<path id="Fill-521" class="st2" d="M1123.2,357.3v-4.3h-2.9v-6.5l-6-3v-3.3l-1.9-2V335h-3.4v1.9h-1.5l-0.9,2.8h-1.5v4.1h-0.9
					c0,0-2.2-8.3-10.7-8.3c-8.5,0-10.6,9.5-10.6,9.5h-4.6v5.6l-4.4,1.7v3.6h-1.9l-3.9,6.7v8.1l-1.9,2.2v8.1l59-22L1123.2,357.3"/>
				<polyline id="Fill-522" class="st2" points="1161.7,344.5 1161.7,345.1 1157.7,345.1 1157.7,344.1 1148.1,344.1 1148.1,341 
					1143.4,341 1143.4,347.1 1138.3,354 1162.3,345.4 1161.7,344.5 				"/>
				<polyline id="Fill-523" class="st2" points="1133.4,355 1132.3,356 1136.3,355 1133.4,355 				"/>
				<path id="Fill-524" class="st2" d="M977.3,414.1c-0.1-3.5-0.3-6.8-0.5-10.1l-7.5,13L977.3,414.1"/>
				<polyline id="Fill-525" class="st11" points="1160.3,345 1137,353.9 1136.6,354.4 1135.5,354.4 1131.9,355.8 1123.9,366.9 
					1123.9,359.7 1123.2,359.1 1064.9,381.3 1064.9,447.9 1063,447.9 1060.8,452.2 1060.8,473.5 1049.3,473.5 1049.3,475.8 
					1128.7,533 1160.3,345 				"/>
				<path id="Fill-526" class="st11" d="M1046.3,389l-62,23.8c0.1,2.7,0.1,5.3,0.1,7.6c0,2.6,0,5.5,0,8.6l61.9,45V389"/>
				<path id="Fill-527" class="st11" d="M977.3,425c-0.1-3.1-0.2-6.1-0.4-9l-7.6,3L977.3,425"/>
				<path id="Fill-528" class="st12" d="M901.3,492.8l228,42.2l-79.1-57.7v15.9h-3.3v-18.3l-62.1-45.2c0,21.5,0,50.1,0,50.1h-6.2
					c0-9.4,0-19.6,0-30.6c0-8.6-0.2-16.7-0.4-24.3l-8-5.9L901.3,492.8"/>
				<polyline id="Fill-529" class="st8" points="901.3,491 921.9,556 1094.3,556 1129.3,533 901.3,491 				"/>
				<polyline id="Fill-530" class="st7" points="738.3,501.9 880.6,556 922.3,556 901.6,491 738.3,501.9 				"/>
				<polyline id="Fill-531" class="st8" points="773,556 880.3,556 738.3,502 773,556 				"/>
				<polyline id="Fill-532" class="st12" points="753.4,556 772.3,556 738.3,502 753.4,556 				"/>
				<polyline id="Fill-533" class="st6" points="882.3,366 880.3,366 881.4,372 882.3,366 				"/>
				<polyline id="Fill-534" class="st6" points="880.7,361 880.7,337.3 883.3,319.3 881,319.3 881,299.5 867.3,282 880.7,361 				
					"/>
				<path id="Fill-535" class="st6" d="M969.3,419l-52.9-69c-3,18.6-6.8,49.1-7.2,91.4h-4.6l-1.5-2H900l-3.1,4.3v3.9l-1.6,1v15.2
					L900,492L969.3,419"/>
				<polyline id="Fill-536" class="st13" points="896.5,463 896.5,476.4 885.3,476.4 901.3,491 896.5,463 				"/>
				<polyline id="Fill-537" class="st13" points="832.3,426.7 877,469 877,456.6 881.3,430.3 877.8,430.3 877.8,393.9 880.6,371.9 
					879.6,366.1 878.8,366.1 878.8,360.9 865.8,282 832.3,426.7 				"/>
				<polyline id="Fill-538" class="st14" points="738.3,502 901.3,491.1 885.7,476.4 878,476.4 878,469.3 833,427 738.3,502 				"/>
				<polyline id="Fill-539" class="st14" points="881.3,299 881.3,284.9 867.3,282 881.3,299 				"/>
				<path id="Fill-540" class="st14" d="M969.3,341.5c-0.8-4.4-1.5-7.9-2-10.2c-2.3-11.9-21.5-17.6-21.5-17.6v-4.9l-0.7-0.2
					l-0.2-8.9l-3-0.7l-0.2,9.6l-0.7,0.2v4.9c0,0-19.2,5.7-21.6,17.6c-0.7,3.5-1.9,9.4-3.2,17.6l53,69.2V341.5"/>
				<path id="Fill-541" class="st7" d="M976.3,403.6c-1.7-29.2-4.8-50.1-7-62.6v76L976.3,403.6"/>
				<path id="Fill-542" class="st7" d="M974.3,334c5.2,17.9,8.2,39.9,9.6,59l33.4-62C998.2,331.2,974.3,334,974.3,334"/>
				<polyline id="Fill-543" class="st5" points="881.3,285 881.3,278 867.3,282 881.3,285 				"/>
				<polyline id="Fill-544" class="st5" points="944.9,281.8 943.8,280 942.7,281.8 942.3,299.3 945.3,300 944.9,281.8 				"/>
				<polyline id="Fill-545" class="st2" points="881.3,278 881.3,272.2 876.3,272.2 876.3,272 867.3,282 881.3,278 				"/>
				<polyline id="Fill-595" class="st15" points="517.2,468 516.3,468 517.2,468.3 517.2,468 				"/>
				<polyline id="Fill-596" class="st15" points="512.3,426.9 510.8,426.9 510.8,428.4 504.7,428.4 504.7,424.1 500,421.6 500,400 
					499.2,400 494.2,393.3 489.9,388.6 484.9,388.6 484.9,387.4 483.8,387.4 483.8,388.5 476.6,388.5 476.6,386 474.7,386 
					474.7,388.7 472.7,390.5 470.1,390.5 470.1,395.9 466.5,395.9 463.9,396.6 463.9,406.3 449.1,406.3 447.9,404.9 435.1,404.9 
					435.1,409.4 433.3,410.6 433.3,438.6 512.3,465 512.3,426.9 				"/>
				<polyline id="Fill-597" class="st15" points="535.6,441.3 534,441.3 534,439.8 531.5,438.4 531.5,436.6 530.1,435 530.1,447 
					527.5,447 527.5,446.1 524.5,446.1 524.5,448.1 522.2,449 522.2,469.2 520.3,469.2 576.3,489 535.6,441.3 				"/>
				<polyline id="Fill-598" class="st9" points="569.2,449.3 567.4,449.3 567.4,447.9 564.7,447.9 564.7,440.3 562.8,440.3 
					562.8,439 557.8,439 557.8,440 544.1,440 544.1,441.1 536.3,441.1 577.3,489 569.2,449.3 				"/>
				<polyline id="Fill-599" class="st9" points="531.3,426 530.3,426 530.3,435.5 531.3,437 531.3,426 				"/>
				<polyline id="Fill-600" class="st9" points="489,389 488.3,389 492.3,394 489,389 				"/>
				<path id="Fill-601" class="st16" d="M590.6,325.5c-0.3,0.5-0.3,1.3-0.3,2.5l16-11C597.1,320,591.6,323.8,590.6,325.5"/>
				<polyline id="Fill-603" class="st17" points="520.3,469.1 517.9,469.1 517.9,468.3 516.9,468 515.3,468 515.3,490 577.3,488.5 
					520.3,469.1 				"/>
				<polyline id="Fill-604" class="st17" points="512.3,465.8 433.3,439 433.3,492 512.3,490.1 512.3,465.8 				"/>
				<polygon id="Fill-605" class="st18" points="515.3,527.6 511.1,527.6 511.1,490.6 433,492.5 433,517.6 431.3,557 483.7,557 
					577.3,489 515.3,490.5 				"/>
				<polyline id="Fill-606" class="st14" points="484.3,557 638.3,557 578,489 484.3,557 				"/>
				<path id="Fill-607" class="st6" d="M683.3,274v2l0.9-1.9C683.7,274,683.3,274,683.3,274"/>
				<polyline id="Fill-608" class="st2" points="874.3,272.8 874.3,271 870.9,271 864.3,279.4 865.5,283 874.3,272.8 				"/>
				<polyline id="Fill-609" class="st7" points="692.3,556 753.3,556 738,502 692.3,556 				"/>
				<polyline id="Fill-610" class="st15" points="577.3,489 637.8,557 693.2,557 739.3,502.9 577.3,489 				"/>
				<polyline id="Fill-611" class="st2" points="739.2,502 834.3,426.6 795.5,411.9 795.5,419.7 796.5,419.7 796.5,444.7 
					791.8,444.7 791.8,442.3 787.9,439.1 786.6,439.1 786.6,445.5 766.7,445.5 766.7,455.3 751.2,455.3 751.2,454.3 745.8,454.3 
					743.7,458.3 742.7,458.3 742.7,457.3 740.1,457.3 740.1,460.6 738,460.6 738,436.8 738.6,435.6 738.6,431 737.8,431 
					737.8,390.1 703.3,377 739.2,502 				"/>
				<path id="Fill-612" class="st12" d="M739.3,502l-35.8-125L679,398.6v30.5h-2.1v25h-1.2l-1,2.5h-2.2v-1.5h-4.4v2.8h-2.5v-1.3
					h-9.3c0,0,0.9-19.3,1.6-39.4l-80.6,70.9L739.3,502"/>
				<path id="Fill-613" class="st9" d="M657.8,417.6c0.4-9.8,0.7-19.8,0.9-27.8c0.1-5.4,0.4-11.5,0.6-17.7l-64.2-8.1
					c0.8,6,1.7,12.4,2.5,19.4c3.6,32,4,77.8,4,77.8h-4.2v5.9h-1.6v-6.3h-3.1v-1.4h-6.4v2.9h-7.2v1.2h-1.5v-14.4h-8.3l8.2,38.8
					L657.8,417.6"/>
				<polyline id="Fill-614" class="st9" points="677.3,374 677.3,398 702.3,377 677.3,374 				"/>
				<path id="Fill-615" class="st8" d="M736.3,297.8h-1v-2.9h1v-20.1c-7.3,1.3-9.5,9.7-9.5,9.7v-11.1h-8.1v-3h-3.2v-4.5h0.7v-4.2
					h-1.1v-25.9l-0.7-0.8v17.1h-0.8v9.5h-1v4.3h1v4.2h-2.9v3.5h-9.2v15.7h-0.7c-6.8-12.1-14.1-14.2-16.6-14.6l-0.9,1.9v7.6l53,20.8
					V297.8"/>
				<polyline id="Fill-616" class="st13" points="735.3,355.4 735.3,324.4 734,324.4 734,321.4 735.3,321.4 735.3,305.8 682.5,285 
					682.5,289.1 681.3,290.1 681.3,291.6 702.2,379 735.3,355.4 				"/>
				<polyline id="Fill-617" class="st6" points="737.3,391 737.3,370.2 736.5,368 736.5,355 703.3,378.2 737.3,391 				"/>
				<polyline id="Fill-618" class="st6" points="809.2,378 807.9,378 807.9,396 801.1,396 801.1,395.1 799.3,395.1 799.3,398.7 
					797.2,398.7 797.2,410.5 794.3,410.5 794.3,412.2 833.3,427 809.2,378 				"/>
				<polyline id="Fill-619" class="st6" points="860.3,274.8 857.9,274.8 857.9,272.2 859.4,272.2 859.4,269.6 850,269.6 850,268 
					848.4,267 848.4,265 841.8,265 841.8,269.2 838.7,269.2 838.7,270.2 825.3,270.2 825.3,302 860.3,285.7 860.3,274.8 				"/>
				<polyline id="Fill-620" class="st6" points="865.2,279 860.3,285 866.3,282.3 865.2,279 				"/>
				<polyline id="Fill-621" class="st14" points="867.3,282 861,284.9 860.2,286 860.2,285.3 825,301.7 825,317.3 822.3,317.3 
					824,341.7 824,364.2 821.4,364.2 821.4,377.7 809.3,377.7 833.4,426 867.3,282 				"/>
				<polyline id="Fill-622" class="st9" points="682.1,291 682.1,321.7 680.3,321.7 680.3,358.3 703.3,378 682.1,291 				"/>
				<path id="Fill-623" class="st9" d="M661.3,325.5c0-2.8-2.4-13.5-27.9-13.5c-2.1,0-4.1,0.2-6.1,0.3l33.3,28.7
					C661,332.6,661.3,326.6,661.3,325.5"/>
				<polyline id="Fill-624" class="st18" points="678.9,358 678.9,366.4 677.3,366.4 677.3,374 702.3,377 678.9,358 				"/>
				<path id="Fill-625" class="st18" d="M661.3,340.9L627.6,312c-8.7,0.6-16,2.2-21.8,4.3l-15.5,11.6c0,5.5,2.4,18.4,4.9,36
					l64.7,8.1C660.3,361,660.9,349.7,661.3,340.9"/>
			</g>
		</g>
	</g>
</g>
</svg>
