<?xml version="1.0" encoding="utf-8"?>
<!-- Generator: Adobe Illustrator 22.0.1, SVG Export Plug-In . SVG Version: 6.00 Build 0)  -->
<svg version="1.1" id="Layer_1" xmlns="http://www.w3.org/2000/svg" xmlns:xlink="http://www.w3.org/1999/xlink" x="0px" y="0px"
	 viewBox="0 0 1920 506" style="enable-background:new 0 0 1920 506;" xml:space="preserve">
<style type="text/css">
	.st0{fill:#D8D8D8;}
	.st1{fill:#63D9EA;}
	.st2{fill:url(#b_23_);}
	.st3{fill:url(#b_24_);}
	.st4{filter:url(#Adobe_OpacityMaskFilter);}
	.st5{fill:#FFFFFF;}
	.st6{opacity:0.261;mask:url(#e_1_);fill:#FFFFFF;enable-background:new    ;}
	.st7{filter:url(#Adobe_OpacityMaskFilter_1_);}
	.st8{opacity:0.261;mask:url(#e_2_);fill:#BAF4FD;enable-background:new    ;}
	.st9{filter:url(#Adobe_OpacityMaskFilter_2_);}
	.st10{opacity:0.261;mask:url(#e_3_);fill:#FFFFFF;enable-background:new    ;}
	.st11{filter:url(#Adobe_OpacityMaskFilter_3_);}
	.st12{opacity:0.261;mask:url(#e_4_);fill:#01D1C1;enable-background:new    ;}
	.st13{filter:url(#Adobe_OpacityMaskFilter_4_);}
	.st14{opacity:0.261;mask:url(#e_5_);fill:#7EF2E9;enable-background:new    ;}
	.st15{filter:url(#Adobe_OpacityMaskFilter_5_);}
	.st16{opacity:0.1;mask:url(#e_6_);fill:#FFFFFF;enable-background:new    ;}
	.st17{filter:url(#Adobe_OpacityMaskFilter_6_);}
	.st18{opacity:0.1;mask:url(#e_13_);fill:#FFFFFF;enable-background:new    ;}
	.st19{filter:url(#Adobe_OpacityMaskFilter_7_);}
	.st20{opacity:0.1;mask:url(#e_14_);fill:#FFFFFF;enable-background:new    ;}
	.st21{filter:url(#Adobe_OpacityMaskFilter_8_);}
	.st22{opacity:0.1;mask:url(#e_15_);fill:#FFFFFF;enable-background:new    ;}
	.st23{filter:url(#Adobe_OpacityMaskFilter_9_);}
	.st24{opacity:0.1;mask:url(#e_16_);fill:#FFFFFF;enable-background:new    ;}
	.st25{filter:url(#Adobe_OpacityMaskFilter_10_);}
	.st26{opacity:0.1;mask:url(#e_17_);fill:#FFFFFF;enable-background:new    ;}
	.st27{filter:url(#Adobe_OpacityMaskFilter_11_);}
	.st28{opacity:0.1;mask:url(#e_18_);fill:#FFFFFF;enable-background:new    ;}
	.st29{filter:url(#Adobe_OpacityMaskFilter_12_);}
	.st30{opacity:0.1;mask:url(#e_19_);fill:#FFFFFF;enable-background:new    ;}
	.st31{filter:url(#Adobe_OpacityMaskFilter_13_);}
	.st32{opacity:0.261;mask:url(#e_7_);fill:#0C7F99;enable-background:new    ;}
	.st33{filter:url(#Adobe_OpacityMaskFilter_14_);}
	.st34{opacity:0.261;mask:url(#e_8_);fill:#63D9EA;enable-background:new    ;}
	.st35{filter:url(#Adobe_OpacityMaskFilter_15_);}
	.st36{opacity:0.261;mask:url(#e_9_);fill:#144F44;enable-background:new    ;}
	.st37{filter:url(#Adobe_OpacityMaskFilter_16_);}
	.st38{opacity:0.261;mask:url(#e_10_);fill:#63D9EA;enable-background:new    ;}
	.st39{filter:url(#Adobe_OpacityMaskFilter_17_);}
	.st40{opacity:0.261;mask:url(#e_11_);fill:#FFFFFF;enable-background:new    ;}
	.st41{filter:url(#Adobe_OpacityMaskFilter_18_);}
	.st42{opacity:0.9;mask:url(#e_12_);}
	.st43{fill:#39C2DB;}
	.st44{fill:#8EEDFC;}
	.st45{fill:#60DAEB;}
	.st46{filter:url(#Adobe_OpacityMaskFilter_19_);}
	.st47{mask:url(#g_1_);fill:#11ACCD;}
	.st48{fill:#00ADCE;}
	.st49{fill:#A1E5EC;}
	.st50{fill:#1FB5D2;}
	.st51{fill:#1865F2;}
</style>
<title>homepage guts</title>
<g>
	<g>
		<path id="a" class="st0" d="M0,0h1920v505H0V0z"/>
	</g>
	<g>
		<path id="b_1_" class="st1" d="M0,1h1920v505H0V1z"/>
	</g>
	<g>
		
			<linearGradient id="b_23_" gradientUnits="userSpaceOnUse" x1="917.6483" y1="293.8455" x2="916.5628" y2="295.7701" gradientTransform="matrix(1920 0 0 -505 -1759723 149205.875)">
			<stop  offset="0" style="stop-color:#01D1C1"/>
			<stop  offset="1" style="stop-color:#00D1C1;stop-opacity:0"/>
		</linearGradient>
		<path id="b_2_" class="st2" d="M0,1h1920v505H0V1z"/>
	</g>
	<g>
		
			<linearGradient id="b_24_" gradientUnits="userSpaceOnUse" x1="917.0224" y1="295.2692" x2="917.0224" y2="294.2365" gradientTransform="matrix(1920 0 0 -505 -1759723 149205.875)">
			<stop  offset="0" style="stop-color:#066EE2"/>
			<stop  offset="1" style="stop-color:#066EE2;stop-opacity:0"/>
		</linearGradient>
		<path id="b_3_" class="st3" d="M0,1h1920v505H0V1z"/>
	</g>
	<defs>
		<filter id="Adobe_OpacityMaskFilter" filterUnits="userSpaceOnUse" x="367.4" y="212.1" width="1109.1" height="180.7">
			<feColorMatrix  type="matrix" values="1 0 0 0 0  0 1 0 0 0  0 0 1 0 0  0 0 0 1 0"/>
		</filter>
	</defs>
	<mask maskUnits="userSpaceOnUse" x="367.4" y="212.1" width="1109.1" height="180.7" id="e_1_">
		<g class="st4">
			<path id="b_4_" class="st5" d="M0,1h1920v505H0V1z"/>
		</g>
	</mask>
	<path class="st6" d="M367.4,215.3c0,1.8,1.4,3.2,3.2,3.2s3.2-1.4,3.2-3.2l0,0c0-1.8-1.4-3.2-3.2-3.2S367.4,213.6,367.4,215.3
		 M1475.4,392.8c0.6,0,1.1-0.5,1.1-1.1s-0.5-1.1-1.1-1.1s-1.1,0.5-1.1,1.1S1474.9,392.8,1475.4,392.8 M379,226.9
		c0.6,0,1.1-0.5,1.1-1.1c0-0.6-0.5-1.1-1.1-1.1s-1.1,0.5-1.1,1.1C378,226.4,378.5,226.9,379,226.9"/>
	<defs>
		<filter id="Adobe_OpacityMaskFilter_1_" filterUnits="userSpaceOnUse" x="1585.9" y="258.2" width="8.5" height="8.5">
			<feColorMatrix  type="matrix" values="1 0 0 0 0  0 1 0 0 0  0 0 1 0 0  0 0 0 1 0"/>
		</filter>
	</defs>
	<mask maskUnits="userSpaceOnUse" x="1585.9" y="258.2" width="8.5" height="8.5" id="e_2_">
		<g class="st7">
			<path id="b_5_" class="st5" d="M0,1h1920v505H0V1z"/>
		</g>
	</mask>
	<path class="st8" d="M1590.1,266.7c0-2.3,1.9-4.2,4.2-4.2c-2.3,0-4.2-1.9-4.2-4.2l0,0c0,2.3-1.9,4.2-4.2,4.2
		C1588.2,262.5,1590.1,264.4,1590.1,266.7"/>
	<defs>
		<filter id="Adobe_OpacityMaskFilter_2_" filterUnits="userSpaceOnUse" x="1054.3" y="349.2" width="502.2" height="58.5">
			<feColorMatrix  type="matrix" values="1 0 0 0 0  0 1 0 0 0  0 0 1 0 0  0 0 0 1 0"/>
		</filter>
	</defs>
	<mask maskUnits="userSpaceOnUse" x="1054.3" y="349.2" width="502.2" height="58.5" id="e_3_">
		<g class="st9">
			<path id="b_6_" class="st5" d="M0,1h1920v505H0V1z"/>
		</g>
	</mask>
	<path class="st10" d="M1550.1,352.4c0,1.8,1.4,3.2,3.2,3.2c1.8,0,3.2-1.4,3.2-3.2l0,0c0-1.8-1.4-3.2-3.2-3.2
		C1551.5,349.2,1550.1,350.7,1550.1,352.4 M1054.3,404.5c0,1.8,1.4,3.2,3.2,3.2s3.2-1.4,3.2-3.2l0,0c0-1.8-1.4-3.2-3.2-3.2
		S1054.3,402.8,1054.3,404.5"/>
	<defs>
		<filter id="Adobe_OpacityMaskFilter_3_" filterUnits="userSpaceOnUse" x="426.4" y="168.8" width="923.8" height="237.1">
			<feColorMatrix  type="matrix" values="1 0 0 0 0  0 1 0 0 0  0 0 1 0 0  0 0 0 1 0"/>
		</filter>
	</defs>
	<mask maskUnits="userSpaceOnUse" x="426.4" y="168.8" width="923.8" height="237.1" id="e_4_">
		<g class="st11">
			<path id="b_7_" class="st5" d="M0,1h1920v505H0V1z"/>
		</g>
	</mask>
	<path class="st12" d="M721,171.9c0,1.8,1.4,3.2,3.1,3.2s3.2-1.4,3.2-3.1c0,0,0-0.1,0-0.1c0-1.8-1.5-3.2-3.2-3.1
		C722.4,168.8,721,170.2,721,171.9 M1341.8,283.6c0-4.7,3.8-8.5,8.5-8.5c-4.7,0-8.5-3.8-8.5-8.5c0,0,0,0,0,0c0,4.7-3.8,8.5-8.5,8.5
		C1338,275.1,1341.8,278.9,1341.8,283.6 M499.7,263c0-4.7,3.8-8.5,8.5-8.5c-4.7,0-8.5-3.8-8.5-8.5v0c0,4.7-3.8,8.5-8.5,8.5
		C495.9,254.5,499.7,258.3,499.7,263 M426.4,398.8c0,3.9,3.2,7.1,7.1,7.1s7.1-3.2,7.1-7.1s-3.2-7.1-7.1-7.1S426.4,394.9,426.4,398.8
		"/>
	<defs>
		<filter id="Adobe_OpacityMaskFilter_4_" filterUnits="userSpaceOnUse" x="330.8" y="91.4" width="14.1" height="14.1">
			<feColorMatrix  type="matrix" values="1 0 0 0 0  0 1 0 0 0  0 0 1 0 0  0 0 0 1 0"/>
		</filter>
	</defs>
	<mask maskUnits="userSpaceOnUse" x="330.8" y="91.4" width="14.1" height="14.1" id="e_5_">
		<g class="st13">
			<path id="b_8_" class="st5" d="M0,1h1920v505H0V1z"/>
		</g>
	</mask>
	<path class="st14" d="M337.9,105.5c0-3.9,3.2-7.1,7.1-7.1c-3.9,0-7.1-3.2-7.1-7.1c0,3.9-3.2,7.1-7.1,7.1
		C334.7,98.4,337.9,101.6,337.9,105.5"/>
	<defs>
		<filter id="Adobe_OpacityMaskFilter_5_" filterUnits="userSpaceOnUse" x="1447" y="180.6" width="113.2" height="41.4">
			<feColorMatrix  type="matrix" values="1 0 0 0 0  0 1 0 0 0  0 0 1 0 0  0 0 0 1 0"/>
		</filter>
	</defs>
	<mask maskUnits="userSpaceOnUse" x="1447" y="180.6" width="113.2" height="41.4" id="e_6_">
		<g class="st15">
			<path id="b_9_" class="st5" d="M0,1h1920v505H0V1z"/>
		</g>
	</mask>
	<path class="st16" d="M1550.3,203.1h-7.8c-1.5-0.1-2.7-1.3-2.6-2.8c0.1-1.4,1.2-2.6,2.6-2.6h-0.2c4.7-0.1,8.5-3.9,8.4-8.6
		c-0.1-4.6-3.8-8.3-8.4-8.4H1489c-4.7,0-8.5,3.8-8.5,8.5c0,0,0,0,0,0c0,4.7,3.8,8.5,8.5,8.5c0,0,0,0,0,0h1.3c1.5,0,2.7,1.2,2.7,2.7
		c0,1.5-1.2,2.7-2.7,2.7l0,0H1457c-5.5,0-9.9,4.2-9.9,9.4s4.4,9.4,9.9,9.4h93.4c5.5,0,9.9-4.2,9.9-9.4S1555.8,203.1,1550.3,203.1"/>
	<defs>
		<filter id="Adobe_OpacityMaskFilter_6_" filterUnits="userSpaceOnUse" x="1243" y="34.1" width="113.2" height="41.4">
			<feColorMatrix  type="matrix" values="1 0 0 0 0  0 1 0 0 0  0 0 1 0 0  0 0 0 1 0"/>
		</filter>
	</defs>
	<mask maskUnits="userSpaceOnUse" x="1243" y="34.1" width="113.2" height="41.4" id="e_13_">
		<g class="st17">
			<path id="b_16_" class="st5" d="M-204-145.5h1920v505H-204V-145.5z"/>
		</g>
	</mask>
	<path class="st18" d="M1346.3,56.7h-7.8c-1.5-0.1-2.7-1.3-2.6-2.8c0.1-1.4,1.2-2.6,2.6-2.6h-0.2c4.7-0.1,8.5-3.9,8.4-8.6
		c-0.1-4.6-3.8-8.3-8.4-8.4H1285c-4.7,0-8.5,3.8-8.5,8.5c0,0,0,0,0,0c0,4.7,3.8,8.5,8.5,8.5c0,0,0,0,0,0h1.3c1.5,0,2.7,1.2,2.7,2.7
		c0,1.5-1.2,2.7-2.7,2.7l0,0H1253c-5.5,0-9.9,4.2-9.9,9.4s4.4,9.4,9.9,9.4h93.4c5.5,0,9.9-4.2,9.9-9.4S1351.8,56.7,1346.3,56.7"/>
	<defs>
		<filter id="Adobe_OpacityMaskFilter_7_" filterUnits="userSpaceOnUse" x="1006.4" y="139.5" width="113.2" height="41.4">
			<feColorMatrix  type="matrix" values="1 0 0 0 0  0 1 0 0 0  0 0 1 0 0  0 0 0 1 0"/>
		</filter>
	</defs>
	<mask maskUnits="userSpaceOnUse" x="1006.4" y="139.5" width="113.2" height="41.4" id="e_14_">
		<g class="st19">
			<path id="b_17_" class="st5" d="M-440.6-40.1h1920v505h-1920V-40.1z"/>
		</g>
	</mask>
	<path class="st20" d="M1109.7,162h-7.9c-1.5-0.1-2.7-1.3-2.6-2.8c0.1-1.4,1.2-2.6,2.6-2.6h-0.2c4.7-0.1,8.5-3.9,8.4-8.6
		c-0.1-4.6-3.8-8.3-8.4-8.4h-53.2c-4.7,0-8.5,3.8-8.5,8.5c0,0,0,0,0,0c0,4.7,3.8,8.5,8.5,8.5c0,0,0,0,0,0h1.3c1.5,0,2.7,1.2,2.7,2.7
		c0,1.5-1.2,2.7-2.7,2.7l0,0h-33.4c-5.5,0-9.9,4.2-9.9,9.4s4.4,9.4,9.9,9.4h93.4c5.5,0,9.9-4.2,9.9-9.4S1115.2,162,1109.7,162"/>
	<defs>
		<filter id="Adobe_OpacityMaskFilter_8_" filterUnits="userSpaceOnUse" x="571.1" y="75.5" width="113.2" height="41.4">
			<feColorMatrix  type="matrix" values="1 0 0 0 0  0 1 0 0 0  0 0 1 0 0  0 0 0 1 0"/>
		</filter>
	</defs>
	<mask maskUnits="userSpaceOnUse" x="571.1" y="75.5" width="113.2" height="41.4" id="e_15_">
		<g class="st21">
			<path id="b_18_" class="st5" d="M-876-104.1h1920v505H-876V-104.1z"/>
		</g>
	</mask>
	<path class="st22" d="M674.3,98h-7.8c-1.5-0.1-2.7-1.3-2.6-2.8c0.1-1.4,1.2-2.6,2.6-2.6h-0.2c4.7-0.1,8.5-3.9,8.4-8.6
		c-0.1-4.6-3.8-8.3-8.4-8.4H613c-4.7,0-8.5,3.8-8.5,8.5c0,0,0,0,0,0c0,4.7,3.8,8.5,8.5,8.5c0,0,0,0,0,0h1.3c1.5,0,2.7,1.2,2.7,2.7
		c0,1.5-1.2,2.7-2.7,2.7l0,0H581c-5.5,0-9.9,4.2-9.9,9.4s4.4,9.4,9.9,9.4h93.4c5.5,0,9.9-4.2,9.9-9.4S679.8,98,674.3,98"/>
	<defs>
		<filter id="Adobe_OpacityMaskFilter_9_" filterUnits="userSpaceOnUse" x="434.6" y="242.3" width="113.2" height="41.4">
			<feColorMatrix  type="matrix" values="1 0 0 0 0  0 1 0 0 0  0 0 1 0 0  0 0 0 1 0"/>
		</filter>
	</defs>
	<mask maskUnits="userSpaceOnUse" x="434.6" y="242.3" width="113.2" height="41.4" id="e_16_">
		<g class="st23">
			<path id="b_19_" class="st5" d="M-1012.4,62.7h1920v505h-1920V62.7z"/>
		</g>
	</mask>
	<path class="st24" d="M537.9,264.9H530c-1.5-0.1-2.7-1.3-2.6-2.8c0.1-1.4,1.2-2.6,2.6-2.6h-0.2c4.7-0.1,8.5-3.9,8.4-8.6
		c-0.1-4.6-3.8-8.3-8.4-8.4h-53.2c-4.7,0-8.5,3.8-8.5,8.5c0,0,0,0,0,0c0,4.7,3.8,8.5,8.5,8.5c0,0,0,0,0,0h1.3c1.5,0,2.7,1.2,2.7,2.7
		s-1.2,2.7-2.7,2.7l0,0h-33.4c-5.5,0-9.9,4.2-9.9,9.4c0,5.2,4.4,9.4,9.9,9.4h93.4c5.5,0,9.9-4.2,9.9-9.4
		C547.8,269.1,543.4,264.9,537.9,264.9"/>
	<defs>
		<filter id="Adobe_OpacityMaskFilter_10_" filterUnits="userSpaceOnUse" x="288.3" y="141.4" width="113.2" height="41.4">
			<feColorMatrix  type="matrix" values="1 0 0 0 0  0 1 0 0 0  0 0 1 0 0  0 0 0 1 0"/>
		</filter>
	</defs>
	<mask maskUnits="userSpaceOnUse" x="288.3" y="141.4" width="113.2" height="41.4" id="e_17_">
		<g class="st25">
			<path id="b_20_" class="st5" d="M-1158.7-38.2h1920v505h-1920V-38.2z"/>
		</g>
	</mask>
	<path class="st26" d="M391.6,163.9h-7.8c-1.5-0.1-2.7-1.3-2.6-2.8c0.1-1.4,1.2-2.6,2.6-2.6h-0.2c4.7-0.1,8.5-3.9,8.4-8.6
		c-0.1-4.6-3.8-8.3-8.4-8.4h-53.2c-4.7,0-8.5,3.8-8.5,8.5c0,0,0,0,0,0c0,4.7,3.8,8.5,8.5,8.5c0,0,0,0,0,0h1.3c1.5,0,2.7,1.2,2.7,2.7
		c0,1.5-1.2,2.7-2.7,2.7l0,0h-33.4c-5.5,0-9.9,4.2-9.9,9.4s4.4,9.4,9.9,9.4h93.4c5.5,0,9.9-4.2,9.9-9.4S397.1,163.9,391.6,163.9"/>
	<defs>
		<filter id="Adobe_OpacityMaskFilter_11_" filterUnits="userSpaceOnUse" x="772.3" y="221.7" width="113.2" height="41.4">
			<feColorMatrix  type="matrix" values="1 0 0 0 0  0 1 0 0 0  0 0 1 0 0  0 0 0 1 0"/>
		</filter>
	</defs>
	<mask maskUnits="userSpaceOnUse" x="772.3" y="221.7" width="113.2" height="41.4" id="e_18_">
		<g class="st27">
			<path id="b_21_" class="st5" d="M-674.7,42.1h1920v505h-1920V42.1z"/>
		</g>
	</mask>
	<path class="st28" d="M875.6,244.2h-7.8c-1.5-0.1-2.7-1.3-2.6-2.8c0.1-1.4,1.2-2.6,2.6-2.6h-0.2c4.7-0.1,8.5-3.9,8.4-8.6
		c-0.1-4.6-3.8-8.3-8.4-8.4h-53.2c-4.7,0-8.5,3.8-8.5,8.5c0,0,0,0,0,0c0,4.7,3.8,8.5,8.5,8.5c0,0,0,0,0,0h1.3c1.5,0,2.7,1.2,2.7,2.7
		c0,1.5-1.2,2.7-2.7,2.7l0,0h-33.4c-5.5,0-9.9,4.2-9.9,9.4s4.4,9.4,9.9,9.4h93.4c5.5,0,9.9-4.2,9.9-9.4S881.1,244.2,875.6,244.2"/>
	<defs>
		<filter id="Adobe_OpacityMaskFilter_12_" filterUnits="userSpaceOnUse" x="1227.2" y="246" width="113.2" height="41.4">
			<feColorMatrix  type="matrix" values="1 0 0 0 0  0 1 0 0 0  0 0 1 0 0  0 0 0 1 0"/>
		</filter>
	</defs>
	<mask maskUnits="userSpaceOnUse" x="1227.2" y="246" width="113.2" height="41.4" id="e_19_">
		<g class="st29">
			<path id="b_22_" class="st5" d="M-219.8,66.4h1920v505h-1920V66.4z"/>
		</g>
	</mask>
	<path class="st30" d="M1330.5,268.5h-7.8c-1.5-0.1-2.7-1.3-2.6-2.8c0.1-1.4,1.2-2.6,2.6-2.6h-0.2c4.7-0.1,8.5-3.9,8.4-8.6
		c-0.1-4.6-3.8-8.3-8.4-8.4h-53.2c-4.7,0-8.5,3.8-8.5,8.5c0,0,0,0,0,0c0,4.7,3.8,8.5,8.5,8.5c0,0,0,0,0,0h1.3c1.5,0,2.7,1.2,2.7,2.7
		s-1.2,2.7-2.7,2.7l0,0h-33.4c-5.5,0-9.9,4.2-9.9,9.4c0,5.2,4.4,9.4,9.9,9.4h93.4c5.5,0,9.9-4.2,9.9-9.4
		C1340.4,272.7,1335.9,268.5,1330.5,268.5"/>
	<defs>
		<filter id="Adobe_OpacityMaskFilter_13_" filterUnits="userSpaceOnUse" x="552.8" y="299.6" width="9.9" height="10.1">
			<feColorMatrix  type="matrix" values="1 0 0 0 0  0 1 0 0 0  0 0 1 0 0  0 0 0 1 0"/>
		</filter>
	</defs>
	<mask maskUnits="userSpaceOnUse" x="552.8" y="299.6" width="9.9" height="10.1" id="e_7_">
		<g class="st31">
			<path id="b_10_" class="st5" d="M0,1h1920v505H0V1z"/>
		</g>
	</mask>
	<path class="st32" d="M558.5,306.8c0,1.6-1.2,2.9-2.8,2.9c-1.6,0-2.9-1.2-2.9-2.8c0,0,0-0.1,0-0.1c0-1.6,1.3-2.8,2.9-2.8
		C557.2,304,558.5,305.2,558.5,306.8 M562.7,301c0,0.8-0.6,1.4-1.4,1.4c-0.8,0-1.4-0.6-1.4-1.4s0.6-1.4,1.4-1.4
		C562.1,299.6,562.7,300.2,562.7,301"/>
	<defs>
		<filter id="Adobe_OpacityMaskFilter_14_" filterUnits="userSpaceOnUse" x="752.3" y="354.8" width="2.1" height="2.1">
			<feColorMatrix  type="matrix" values="1 0 0 0 0  0 1 0 0 0  0 0 1 0 0  0 0 0 1 0"/>
		</filter>
	</defs>
	<mask maskUnits="userSpaceOnUse" x="752.3" y="354.8" width="2.1" height="2.1" id="e_8_">
		<g class="st33">
			<path id="b_11_" class="st5" d="M0,1h1920v505H0V1z"/>
		</g>
	</mask>
	<path class="st34" d="M753.4,356.9c0.6,0,1.1-0.5,1.1-1.1s-0.5-1.1-1.1-1.1s-1.1,0.5-1.1,1.1S752.8,356.9,753.4,356.9"/>
	<defs>
		<filter id="Adobe_OpacityMaskFilter_15_" filterUnits="userSpaceOnUse" x="1055.3" y="368.6" width="2.1" height="2.1">
			<feColorMatrix  type="matrix" values="1 0 0 0 0  0 1 0 0 0  0 0 1 0 0  0 0 0 1 0"/>
		</filter>
	</defs>
	<mask maskUnits="userSpaceOnUse" x="1055.3" y="368.6" width="2.1" height="2.1" id="e_9_">
		<g class="st35">
			<path id="b_12_" class="st5" d="M0,1h1920v505H0V1z"/>
		</g>
	</mask>
	<path class="st36" d="M1056.4,370.7c0.6,0,1.1-0.5,1.1-1.1s-0.5-1.1-1.1-1.1s-1.1,0.5-1.1,1.1S1055.8,370.7,1056.4,370.7"/>
	<defs>
		<filter id="Adobe_OpacityMaskFilter_16_" filterUnits="userSpaceOnUse" x="442" y="386.7" width="2.1" height="2.1">
			<feColorMatrix  type="matrix" values="1 0 0 0 0  0 1 0 0 0  0 0 1 0 0  0 0 0 1 0"/>
		</filter>
	</defs>
	<mask maskUnits="userSpaceOnUse" x="442" y="386.7" width="2.1" height="2.1" id="e_10_">
		<g class="st37">
			<path id="b_13_" class="st5" d="M0,1h1920v505H0V1z"/>
		</g>
	</mask>
	<path class="st38" d="M443.1,388.8c0.6,0,1.1-0.5,1.1-1.1s-0.5-1.1-1.1-1.1s-1.1,0.5-1.1,1.1S442.5,388.8,443.1,388.8"/>
	<defs>
		<filter id="Adobe_OpacityMaskFilter_17_" filterUnits="userSpaceOnUse" x="627.6" y="337.1" width="2.1" height="2.1">
			<feColorMatrix  type="matrix" values="1 0 0 0 0  0 1 0 0 0  0 0 1 0 0  0 0 0 1 0"/>
		</filter>
	</defs>
	<mask maskUnits="userSpaceOnUse" x="627.6" y="337.1" width="2.1" height="2.1" id="e_11_">
		<g class="st39">
			<path id="b_14_" class="st5" d="M0,1h1920v505H0V1z"/>
		</g>
	</mask>
	<path class="st40" d="M628.7,339.2c0.6,0,1.1-0.5,1.1-1.1s-0.5-1.1-1.1-1.1l0,0c-0.6,0-1.1,0.5-1.1,1.1S628.1,339.2,628.7,339.2"/>
	<defs>
		<filter id="Adobe_OpacityMaskFilter_18_" filterUnits="userSpaceOnUse" x="-1063.8" y="-87.8" width="4804.4" height="1233.8">
			<feColorMatrix  type="matrix" values="1 0 0 0 0  0 1 0 0 0  0 0 1 0 0  0 0 0 1 0"/>
		</filter>
	</defs>
	<mask maskUnits="userSpaceOnUse" x="-1063.8" y="-87.8" width="4804.4" height="1233.8" id="e_12_">
		<g class="st41">
			<path id="b_15_" class="st5" d="M0,1h1920v505H0V1z"/>
		</g>
	</mask>
	<g class="st42">
		<path class="st43" d="M-105.8,895.1h1112.3l-575-634.3L-105.8,895.1z"/>
		<path class="st44" d="M496.8,333c-10.5,0-10.5,16.2-21.1,16.2c-10.5,0-10.5-16.2-21.1-16.2c-10.5,0-10.5,16.2-21.1,16.2
			c-10.5,0-10.5-16.2-21.1-16.2c-10.5,0-10.5,16.2-21.1,16.2c-10.5,0-10.5-16.2-21.1-16.2l61.1-72.2L496.8,333L496.8,333z"/>
		<path class="st45" d="M697.1,688.5L122,54.2l-53.1,62.7L-116.6-87.8l-537.2,634.3h358.9l-120.3,142H697.1z"/>
		<g transform="translate(-758 -52.35)">
			<defs>
				<filter id="Adobe_OpacityMaskFilter_19_" filterUnits="userSpaceOnUse" x="-305.8" y="0.8" width="1112.3" height="634.3">
					<feColorMatrix  type="matrix" values="1 0 0 0 0  0 1 0 0 0  0 0 1 0 0  0 0 0 1 0"/>
				</filter>
			</defs>
			<mask maskUnits="userSpaceOnUse" x="-305.8" y="0.8" width="1112.3" height="634.3" id="g_1_">
				<g class="st46">
					<path id="f_1_" class="st5" d="M806.4,541.4H0.3V0.8h806.1V541.4z"/>
				</g>
			</mask>
			<path class="st47" d="M-305.8,635.1H806.4L231.4,0.8L-305.8,635.1z"/>
		</g>
		<path class="st48" d="M2293.8,709.8l-575-634.3l-106.3,125.6l-41.4-45.7l-537.2,634.3H2146l-72.4-79.9L2293.8,709.8z"/>
		<path class="st43" d="M807.7,895.1H1920l-575-634.3L807.7,895.1z"/>
		<path class="st44" d="M1410.4,333c-10.6,0-10.6,16.2-21.1,16.2c-10.6,0-10.6-16.2-21.1-16.2c-10.5,0-10.5,16.2-21.1,16.2
			c-10.5,0-10.5-16.2-21.1-16.2c-10.5,0-10.5,16.2-21.1,16.2c-10.5,0-10.5-16.2-21.1-16.2l61.1-72.2L1410.4,333L1410.4,333z"/>
		<path class="st49" d="M1782.9,146.3c-10.3,0-10.3,15.8-20.7,15.8s-10.3-15.8-20.7-15.8s-10.3,15.8-20.7,15.8s-10.3-15.8-20.7-15.8
			c-10.3,0-10.3,15.8-20.7,15.8c-10.3,0-10.3-15.8-20.7-15.8l59.9-70.8L1782.9,146.3L1782.9,146.3z"/>
		<path class="st50" d="M1490.8,582.7h1112.3l-575-634.3L1490.8,582.7z"/>
		<path class="st51" d="M2663.2,694.1l-10.3-3.8h12.4L2663.2,694.1z M3738.8,765.7l-26.3-44.1l-12.8,24.1l-23.3-39.1l-19,35.7
			l-13.1-18.1l-7.7,14.5l-13.2-22.2l-7.7,14.5l-17.2-28.8l-20,37.6l-17.5-29.4l-15.1,28.3l-21.8-36.6l-11.8,22.1l-23.8-39.8
			l-23.2,43.6l-14.5-21.5l-14.2,26.6l-23.1-38.7l-17.3,32.6l-20.4-32.6l-14.7,27.6l-22.4-37.6l-20.7,38.8l-12.6-21.2L3289,733
			l-21.8-30.8l-19.8,37.1l-17.3-28.9l-10.3,19.4l-19.3-32.3l-20.7,38.8l-12.6-21.2l-13.1,24.6l-19.5-23.9l-7.6,14.2l-21.6-36.2
			l-18.8,35.3l-13.6-22.7l-11,20.8l-19.9-33.4l-16.9,31.8l-19-31.8l-12.2,22.9l-21.9-36.7l-11,20.7l-23.1-38.6l-12.3,23.1
			l-25.3-39.3l-23.3,40.6l-10.4-17.4l-13.9,26.1l-24.6-41.1l-20.1,37.7l-12-20.1l-7.7,14.5l-13.2-22.2l-7.7,14.5l-17.2-28.8
			l-20,37.6L2713,658l-19.9,37.4l-16.2-27.1l-7.6,14.2l-21.6-36.2l-18.8,35.3l-13.6-22.7l-11,20.8l-19.9-33.4l-16.9,31.8l-19-31.8
			l-12.2,22.9l-21.9-36.7l-11,20.7l-23.1-38.6l-12.3,23.1l-25.3-39.3l-23.3,40.6l-10.4-17.4l-13.9,26.1l-24.6-41.1l-20.1,37.7
			l-12-20.1l-7.7,14.5l-13.2-22.2l-7.7,14.5l-17.2-28.8l-20,37.6l-17.5-29.4l-15.1,28.3l-21.8-36.6l-11.8,22.1l-23.8-39.8
			l-23.4,44.1l0.5,2.6l-14.7-24.6l-14.2,26.6l-23.1-38.7l-17.4,32.8l-20.3-32.8l-12.6,23.8l-24.5-33.8l-20.7,38.8l-12.6-21.2
			l-18,33.8l-20.2-33.8l-19.8,37.1l-17.3-28.9l-11.4,21.5l-7.5-12.5l-12.3,23.1l-25.3-39.3l-16.3,28.4l-23.3-39.1l-12.2,22.9
			l-21.9-36.7l-11,20.7l-23.1-38.6l-12.3,23.1l-25.3-39.3l-23.3,40.6l-10.4-17.4l-14.6,27.5l-23.8-33.1l-15.2,28.6l-16.8-20.3
			l-7.7,14.5l-13.2-22.2l-7.7,14.4l-17.2-28.8l-20,37.6l-17.5-29.4l-15.1,28.3l-21.8-36.6l-11.8,22.1l-23.8-39.8l-23.5,44.1
			l-14.2-22l-14.2,26.6l-23.1-38.7l-17.8,33.5l-20-33.5l-14.7,27.6l-22.4-37.6l-20.7,38.8l-12.6-21.2l-13,24.4l-17.9-29.9
			l-10.5,19.7l-14.4-24.2l-10.9,20.5l-19.2-32.2l-8.8,16.6l-16.1-26.9l-18.3,34.3l-20.5-34.3l-19.3,36.2l-15.4-25.9l-16,30.1
			l-18-30.1l-13.6,25.5l-21.4-35.8l-8,15.1l-19.9-33.3l-14.8,27.8l-18.9-31.6l-17.8,33.5l-18.7-31.3l-10.5,19.7l-14.4-24.2
			l-10.9,20.5l-19.2-32.2l-8.8,16.6l-16.1-26.9l-18.2,34.2l-20.6-34.2l-19.3,36.2l-15.4-25.9l-16,30.1l-18-30.1L727.4,506L706,470.1
			l-8,15.1L678.1,452l-14.8,27.8l-18.9-31.6l-7.5,14.2L615.2,426l-18.8,35.3l-13.6-22.7l-11,20.8L551.9,426l-16.9,31.8L516,426
			l-12.2,22.9l-21.9-36.7l-11,20.7l-23.1-38.6l-12.3,23.1l-25.3-39.3l-23.3,40.6l-10.4-17.4L364,424.9l-25.9-38.6L318,424.1L306,404
			l-7.7,14.5l-13.2-22.2l-7.7,14.5l-17.2-28.8l-20,37.6l-21.7-33.2l-14.7,25.8l-19.5-37.9l-13.9,23.8l-20.2-33.8l-23.3,46l-14.3-24
			l-14.2,26.6l-23.1-38.7l-17.8,33.5l-20-33.5l-14.7,27.6L0.4,364.3l-20.7,38.8L-32.9,382l-18,33.8L-71.1,382l-19.8,37.1l-17.3-28.9
			l-11.4,21.5l-7.5-12.5l-12.3,23.1l-25.3-39.3l-23.3,40.6l-10.4-17.4l-12.9,24.2l-25.6-39.2l-20.1,37.7l-12-20.1l-7.7,14.5
			l-13.2-22.2l-7.7,14.4l-17.2-28.8l-18.8,35.4l-18.7-27.2l-15.1,28.3l-21.8-36.6l-11.8,22.1l-23.8-39.8l-23.5,44.1l-14.2-22
			l-11.7,22l-25.5-34.1l-17.8,33.5l-20-33.5l-14.7,27.6l-22.4-37.6L-595,408l-12.6-21.2l-16.1,30.2l-22.1-30.2l-19.3,36.3
			l-17.7-28.1l-10.3,19.4l-19.3-32.3l-18.2,34.3l-3.6,2.6l-11.5-19.2l-23.5,44.1V1146h4509.7L3738.8,765.7L3738.8,765.7z"/>
	</g>
</g>
</svg>
